<svg width="53" height="53" viewBox="0 0 53 53" fill="none" xmlns="http://www.w3.org/2000/svg">
<rect width="53" height="53" rx="4" fill="#1D1E22"/>
<path d="M6.53207 16.7203H13.3844L18.0979 28.2068H18.3355L23.049 16.7203H29.9013V37H24.5145V25.2758H24.356L19.8406 36.8416H16.5927L12.0773 25.1966H11.9189V37H6.53207V16.7203Z" fill="white"/>
<path d="M43.4426 23.0577C43.3897 22.3975 43.1422 21.8826 42.6999 21.5129C42.2642 21.1433 41.6007 20.9584 40.7095 20.9584C40.1418 20.9584 39.6764 21.0277 39.3133 21.1664C38.9569 21.2984 38.6928 21.4799 38.5212 21.711C38.3495 21.942 38.2604 22.2061 38.2538 22.5032C38.2406 22.7474 38.2835 22.9686 38.3825 23.1666C38.4881 23.3581 38.6532 23.533 38.8776 23.6914C39.1021 23.8433 39.3892 23.9819 39.7391 24.1073C40.089 24.2328 40.5049 24.345 40.9868 24.444L42.6504 24.8005C43.7726 25.0381 44.7331 25.3517 45.5319 25.7412C46.3307 26.1307 46.9842 26.5895 47.4926 27.1176C48.0009 27.6391 48.3739 28.2266 48.6115 28.8802C48.8558 29.5337 48.9812 30.2467 48.9878 31.0191C48.9812 32.3526 48.6478 33.4814 47.9877 34.4056C47.3275 35.3298 46.3835 36.0329 45.1556 36.5148C43.9344 36.9967 42.4655 37.2377 40.7492 37.2377C38.9866 37.2377 37.4484 36.9769 36.1347 36.4554C34.8276 35.9339 33.811 35.1318 33.0848 34.0491C32.3653 32.9599 32.0022 31.567 31.9956 29.8704H37.224C37.257 30.4909 37.4121 31.0125 37.6894 31.435C37.9666 31.8575 38.3561 32.1776 38.8578 32.3955C39.3661 32.6133 39.9702 32.7222 40.6699 32.7222C41.2575 32.7222 41.7493 32.6496 42.1454 32.5044C42.5415 32.3592 42.8418 32.1578 43.0465 31.9004C43.2511 31.6429 43.3567 31.3491 43.3633 31.0191C43.3567 30.7088 43.2544 30.4381 43.0564 30.2071C42.8649 29.9694 42.5481 29.7582 42.1058 29.5733C41.6635 29.3819 41.066 29.2037 40.3135 29.0386L38.2934 28.6029C36.4978 28.2134 35.0818 27.5632 34.0454 26.6522C33.0155 25.7346 32.5039 24.4836 32.5105 22.8993C32.5039 21.612 32.8472 20.4864 33.5403 19.5226C34.2401 18.5522 35.2072 17.7963 36.4417 17.255C37.6828 16.7137 39.1054 16.443 40.7095 16.443C42.3467 16.443 43.7627 16.717 44.9576 17.2649C46.1525 17.8128 47.0734 18.5852 47.7203 19.582C48.3739 20.5722 48.7039 21.7308 48.7105 23.0577H43.4426Z" fill="#FC0103"/>
</svg>
